<svg width="177" height="152" viewBox="0 0 177 152" fill="none" xmlns="http://www.w3.org/2000/svg">
<g clip-path="url(#clip0_3776_3203)">
<path d="M17.2587 151.97C26.7887 130.17 24.6487 117.79 20.7587 110.47C17.2087 103.78 12.2987 101.5 6.75872 89.4704C2.61872 80.4904 1.25872 72.8404 0.758722 69.4704C-0.221278 62.8204 -0.0912776 57.1304 0.258722 52.9704C0.318722 47.6704 1.18872 36.0204 8.75872 24.4704C20.0387 7.2404 37.9587 2.8104 43.7587 1.4704C47.5187 0.600397 66.8887 -3.4896 86.7587 7.4704C97.5187 13.4004 103.989 21.3004 107.259 25.9704C108.719 28.3004 110.979 32.6104 111.759 38.4704C112.629 45.0504 111.189 50.3004 110.259 52.9704C113.679 58.4304 116.679 62.6504 118.759 65.4704C122.909 71.0904 125.909 74.4804 124.759 77.4704C124.139 79.1004 122.499 80.0404 121.759 80.4704C118.299 82.4704 115.419 80.7804 113.759 82.4704C113.069 83.1804 112.439 84.6304 113.259 87.9704C116.349 92.8504 116.419 94.7204 115.759 95.4704C114.949 96.4004 113.099 95.5504 109.759 96.4704C108.229 96.8904 107.049 97.5004 106.259 97.9704C106.729 98.5804 107.559 99.5304 108.759 100.47C112.249 103.19 115.539 103.09 115.759 104.47C115.849 105.03 115.459 105.96 112.759 107.47C113.179 109.17 113.639 111.57 113.759 114.47C113.939 118.79 114.039 121.29 112.759 123.47C109.819 128.46 101.489 128.47 97.7587 128.47C93.0087 128.47 89.1787 127.37 86.7587 126.47C85.9687 127.02 84.7887 127.98 83.7587 129.47C82.9387 130.65 82.2387 132.13 81.7587 134.47C80.5087 140.6 81.1687 150.96 81.2387 151.97H17.2587Z" fill="white"/>
<path d="M128.759 76.4684C128.239 75.4884 128.219 74.3384 128.759 73.4684C129.509 72.2684 131.229 71.7684 132.759 72.4684C134.539 73.9884 142.619 81.2484 143.759 93.4684C145.149 108.388 135.039 118.258 133.759 119.468C132.119 120.988 129.759 120.758 128.759 119.468C128.039 118.538 128.029 117.068 128.759 115.838C129.739 114.968 139.089 106.418 137.759 93.4684C136.759 83.6784 130.319 77.8084 128.759 76.4684Z" fill="white"/>
<path d="M143.848 70.5503C143.278 69.2503 143.258 67.7203 143.848 66.5703C144.658 64.9803 146.528 64.3103 148.188 65.2403C150.118 67.2603 158.878 76.8803 160.118 93.0803C161.628 112.87 150.668 125.95 149.278 127.55C147.508 129.57 144.938 129.26 143.858 127.55C143.078 126.32 143.068 124.37 143.858 122.74C144.918 121.59 155.058 110.26 153.618 93.0803C152.528 80.1003 145.548 72.3203 143.858 70.5403L143.848 70.5503Z" fill="white"/>
<path d="M158.758 63.4716C156.028 62.5616 155.028 59.8716 155.758 58.4716C156.398 57.2416 158.588 56.5316 160.758 57.4716C162.978 59.9416 165.948 63.6116 168.758 68.4716C171.438 73.1116 176.038 81.2716 176.758 92.4716C177.178 99.1016 176.058 103.902 174.758 109.472C174.758 109.472 172.458 119.302 162.758 133.472C162.018 134.552 160.588 136.522 158.758 136.472C157.968 136.452 157.198 136.052 156.758 135.472C155.868 134.292 156.148 132.162 157.758 130.472C160.188 127.712 172.348 113.342 170.758 92.4716C169.598 77.3316 161.838 67.1216 158.758 63.4716Z" fill="white"/>
</g>
<defs>
<clipPath id="clip0_3776_3203">
<rect width="176.85" height="151.97" fill="white"/>
</clipPath>
</defs>
</svg>
